<?xml version="1.0" encoding="UTF-8"?>
<svg id="_图层_1" data-name=" 图层 1" xmlns="http://www.w3.org/2000/svg" version="1.1" viewBox="0 0 400 60">
  <defs>
    <style>
      .cls-1 {
        fill: none;
        stroke: #69c;
        stroke-miterlimit: 10;
      }
    </style>
  </defs>
  <line class="cls-1" x1="215.1" y1="37.4" x2="215.1" y2="45"/>
  <polyline class="cls-1" points="207.6 45 207.6 37.4 222.6 37.4 222.6 45"/>
  <line class="cls-1" x1="185" y1="37.4" x2="185" y2="45"/>
  <polyline class="cls-1" points="192.5 45 192.5 37.4 177.5 37.4 177.5 45"/>
  <polyline class="cls-1" points="185 37.4 185 29.9 200 29.9 200 37.4 207.6 37.4"/>
  <path id="_路径_n" data-name=" 路径 n" class="cls-1" d="M230.1,45h-60.2v-20.3c0,0,.1-1.4.1-1.4v-1.5c.1,0,.2-.9.2-.9l.2-.9.2-.7.2-.5.2-.5.2-.4.2-.3.3-.4.3-.3.4-.3.4-.3.4-.2.5-.2.5-.2.7-.2h.7c0-.1.8-.2.8-.2h1c0,0,1.3-.2,1.3-.2h1.8c0,0,2.7,0,2.7,0h34.8s2.4,0,2.4,0h1.5c0,0,1.1.2,1.1.2h1c0,.1.8.3.8.3l.7.2.5.2.5.2.4.2.4.3.4.3.3.3.3.4.2.3.2.4.2.5.2.5.2.7v.6c.1,0,.2.8.2.8v1.1c.1,0,.2.9.2.9v1.4c0,0,.1,20.3.1,20.3h0Z"/>
</svg>