<?xml version="1.0" encoding="UTF-8"?>
<svg id="_图层_1" data-name="图层 1" xmlns="http://www.w3.org/2000/svg" viewBox="0 0 400 60">
  <defs>
    <style>
      .cls-1 {
        fill: none;
        stroke: #88c0d0;
        stroke-miterlimit: 10;
        stroke-width: 1.28px;
      }
    </style>
  </defs>
  <line class="cls-1" x1="215.08" y1="37.44" x2="215.08" y2="44.97"/>
  <polyline class="cls-1" points="207.56 44.97 207.56 37.44 222.61 37.44 222.61 44.97"/>
  <line class="cls-1" x1="184.99" y1="37.44" x2="184.99" y2="44.97"/>
  <polyline class="cls-1" points="192.51 44.97 192.51 37.44 177.46 37.44 177.46 44.97"/>
  <polyline class="cls-1" points="184.99 37.44 184.99 29.92 200.03 29.92 200.03 37.44 207.56 37.44"/>
  <path id="_路径_n_10_" data-name="&amp;lt;路径&amp;gt;&amp;lt;n=10&amp;gt;" class="cls-1" d="M230.13,44.97h-60.19l.06-20.3.06-1.43.12-1.51.12-.91.18-.93.18-.66.18-.51.24-.53.24-.42.24-.34.3-.35.3-.29.36-.28.42-.27.42-.21.48-.2.54-.18.66-.17.72-.13.84-.11,1.02-.09,1.33-.07,1.75-.05,2.71-.03h6.39s28.44.01,28.44.01l2.35.05,1.51.07,1.14.09.96.12.78.14.66.17.54.18.48.2.42.21.42.27.36.28.3.29.3.35.24.34.24.42.24.53.18.51.18.66.12.58.12.77.12,1.14.06.88.06,1.43.06,20.3Z"/>
</svg>