<?xml version="1.0" encoding="UTF-8"?>
<svg id="_图层_1" data-name="图层 1" xmlns="http://www.w3.org/2000/svg" viewBox="0 0 400 60">
  <defs>
    <style>
      .cls-1 {
        fill: none;
        stroke: #88c0d0;
        stroke-miterlimit: 10;
        stroke-width: 1.4px;
      }
    </style>
  </defs>
  <line class="cls-1" x1="216.09" y1="37.94" x2="216.09" y2="45.97"/>
  <polyline class="cls-1" points="208.06 45.97 208.06 37.94 224.11 37.94 224.11 45.97"/>
  <line class="cls-1" x1="183.98" y1="37.94" x2="183.98" y2="45.97"/>
  <polyline class="cls-1" points="192.01 45.97 192.01 37.94 175.96 37.94 175.96 45.97"/>
  <polyline class="cls-1" points="183.98 37.94 183.98 29.91 200.03 29.91 200.03 37.94 208.06 37.94"/>
  <path id="_路径_n_10_" data-name="&amp;lt;路径&amp;gt;&amp;lt;n=10&amp;gt;" class="cls-1" d="M232.14,45.97h-64.21l.06-21.66.06-1.53.13-1.61.13-.98.19-.99.19-.71.19-.54.26-.57.26-.45.26-.37.32-.38.32-.31.39-.3.45-.28.45-.23.51-.21.58-.19.71-.18.77-.14.9-.12,1.09-.1,1.41-.08,1.86-.05,2.89-.03h6.81s30.34.01,30.34.01l2.51.05,1.61.08,1.22.1,1.03.13.84.15.71.18.58.19.51.21.45.23.45.28.39.3.32.31.32.38.26.37.26.45.26.57.19.54.19.71.13.62.13.82.13,1.21.06.93.06,1.53.06,21.66Z"/>
</svg>