<?xml version="1.0" encoding="UTF-8"?>
<svg id="_图层_1" data-name="图层 1" xmlns="http://www.w3.org/2000/svg" viewBox="0 0 500 60">
  <defs>
    <style>
      .cls-1 {
        fill: none;
        stroke: #88c0d0;
        stroke-miterlimit: 10;
        stroke-width: 1.28px;
      }
    </style>
  </defs>
  <line class="cls-1" x1="265.84" y1="37.93" x2="265.84" y2="45.96"/>
  <polyline class="cls-1" points="257.82 45.96 257.82 37.93 273.87 37.93 273.87 45.96"/>
  <line class="cls-1" x1="233.74" y1="37.93" x2="233.74" y2="45.96"/>
  <polyline class="cls-1" points="241.77 45.96 241.77 37.93 225.72 37.93 225.72 45.96"/>
  <polyline class="cls-1" points="233.74 37.93 233.74 29.91 249.79 29.91 249.79 37.93 257.82 37.93"/>
  <path id="_路径_n_10_" data-name="&amp;lt;路径&amp;gt;&amp;lt;n=10&amp;gt;" class="cls-1" d="M281.9,45.96h-64.21l.06-21.66.06-1.53.13-1.61.13-.98.19-.99.19-.71.19-.54.26-.57.26-.45.26-.37.32-.38.32-.31.39-.3.45-.28.45-.23.51-.21.58-.19.71-.18.77-.14.9-.12,1.09-.1,1.41-.08,1.86-.05,2.89-.03h6.81s30.34.01,30.34.01l2.51.05,1.61.08,1.22.1,1.03.13.84.15.71.18.58.19.51.21.45.23.45.28.39.3.32.31.32.38.26.37.26.45.26.57.19.54.19.71.13.62.13.82.13,1.21.06.93.06,1.53.06,21.66Z"/>
</svg>