<?xml version="1.0" encoding="UTF-8"?>
<svg id="_三代LOGO-优化" data-name=" 三代LOGO-优化" xmlns="http://www.w3.org/2000/svg" version="1.1" viewBox="0 0 987.5 558.5">
  <defs>
    <style>
      .cls-1 {
        fill: none;
        stroke: #000;
        stroke-miterlimit: 10;
        stroke-width: 8px;
      }
    </style>
  </defs>
  <g id="LOGO">
    <line class="cls-1" x1="621.8" y1="342.8" x2="621.8" y2="406.8"/>
    <polyline class="cls-1" points="557.8 406.8 557.8 342.8 685.8 342.8 685.8 406.8"/>
    <line class="cls-1" x1="365.9" y1="342.8" x2="365.9" y2="406.8"/>
    <polyline class="cls-1" points="429.9 406.8 429.9 342.8 301.9 342.8 301.9 406.8"/>
    <polyline class="cls-1" points="365.9 342.8 365.9 278.8 493.9 278.8 493.9 342.8 557.8 342.8"/>
    <path id="_路径_n" data-name=" 路径 n" class="cls-1" d="M749.8,406.8H237.8l.5-172.7.5-12.2,1-12.9,1-7.8,1.5-7.9,1.5-5.6,1.5-4.3,2-4.5,2-3.6,2-2.9,2.6-3,2.6-2.4,3.1-2.4,3.6-2.3,3.6-1.8,4.1-1.7,4.6-1.5,5.6-1.4,6.1-1.1,7.2-1,8.7-.8,11.3-.6,14.9-.4,23.1-.2h54.3c0-.1,241.9,0,241.9,0l20,.4,12.8.6,9.7.8,8.2,1,6.7,1.2,5.6,1.4,4.6,1.5,4.1,1.7,3.6,1.8,3.6,2.3,3.1,2.4,2.6,2.4,2.6,3,2,2.9,2,3.6,2,4.5,1.5,4.3,1.5,5.6,1,4.9,1,6.5,1,9.7.5,7.4.5,12.2,1,172.8h0Z"/>
  </g>
</svg>